<svg id="Calque_1" data-name="Calque 1" xmlns="http://www.w3.org/2000/svg" viewBox="0 0 636 240"><path d="M81.89,125.12V82.32c0-9.2,4.4-13.6,13.6-13.6h27.6c9.2,0,13.6,4.4,13.6,13.6v9.5h-18.6v-5.9c0-1.4-.4-1.8-1.8-1.8h-13.8c-1.4,0-1.8.4-1.8,1.8v35.6c0,1.4.4,1.8,1.8,1.8h13.8c1.4,0,1.8-.4,1.8-1.8v-8.8h-10.3V97.92h28.9v27.2c0,9.2-4.4,13.6-13.6,13.6H95.49C86.29,138.72,81.89,134.32,81.89,125.12Z"/><path d="M184.29,124.32h-20.6l-3.7,14.4H140.78l21.11-70h24.8l21.3,70H188Zm-3.8-15L174,84l-6.5,25.3Z"/><path d="M300.08,68.72h49.21v15.6H318.88v10.9H343v15.4H318.88v12.5h30.41v15.6H300.08Z"/><path d="M570.18,138.72h-19l-11.9-23.4h-7.7v23.4h-18.8v-70h41c9.2,0,13.6,4.4,13.6,13.6v18.2c0,7.7-3.1,12-9.5,13.3Zm-23.4-38.2c1.4,0,1.8-.4,1.8-1.8v-13c0-1.4-.4-1.8-1.8-1.8h-15.2v16.6Z"/><path d="M502.78,84.32V68.72H451.51a20.82,20.82,0,0,1,.66,40.83v8.19h7.3a4.55,4.55,0,0,1,4.58,4,4.42,4.42,0,0,1-4.39,4.85h-7.5v8.37a4.39,4.39,0,0,1-2.13,3.78h52.75v-15.6h-30.4v-12.5h24.1V95.22h-24.1V84.32Z"/><path d="M459.68,87.65a12,12,0,1,0-13.5,13.46A12.06,12.06,0,0,0,459.68,87.65Z"/><path d="M443.34,134.72v-8.15h-7.49a4.42,4.42,0,0,1-4.39-4.85,4.53,4.53,0,0,1,4.58-4h7.3v-8.2a20.83,20.83,0,0,1,.57-40.83H422.58v26.2h-20.1V68.72h-18.8v70h18.8v-27.8h20.1v27.8h23A4.74,4.74,0,0,1,443.34,134.72Z"/><path d="M286.62,91.07c-2.45-10.26-6.9-13-11.8-12.51h-8.05c-.07-8.31-6.87-9.21-15.25-9.21s-15.17.9-15.24,9.21H225.87c-4,0-7.39,3.93-9.44,12.51-2.78,11.6-2,28.45,3.69,29.81,3.49.83,8-4.45,11.6-11.33L241,113c2.74,13.34,6.44,25.34,10.51,25.34s7.81-12.11,10.55-25.53l9.18-3.42c3.61,7,8.17,12.32,11.68,11.48C288.59,119.52,289.4,102.67,286.62,91.07Zm-14.15-4.38a2.76,2.76,0,1,1-2.76,2.76A2.77,2.77,0,0,1,272.47,86.69Zm-16.29,17.74a4.43,4.43,0,1,1-4.42-4.42A4.42,4.42,0,0,1,256.18,104.43ZM239,97a1.09,1.09,0,0,1-1.09,1.09h-3.78v3.78a1.09,1.09,0,0,1-1.09,1.09h-3.63a1.09,1.09,0,0,1-1.09-1.09V98.05h-3.78A1.09,1.09,0,0,1,223.46,97V93.33a1.09,1.09,0,0,1,1.09-1.09h3.78V88.46a1.09,1.09,0,0,1,1.09-1.09h3.63a1.09,1.09,0,0,1,1.09,1.09v3.78h3.78A1.09,1.09,0,0,1,239,93.33V97Zm16.55,22.22a3.8,3.8,0,1,1-3.8-3.8,3.85,3.85,0,0,1,2,.55A3.8,3.8,0,0,1,255.56,119.18Zm11.21-21.27a2.77,2.77,0,1,1,2.76-2.76A2.77,2.77,0,0,1,266.77,97.91Zm2.94,2.93a2.76,2.76,0,1,1,2.76,2.76A2.76,2.76,0,0,1,269.71,100.84Zm8.45-2.93a2.65,2.65,0,0,1-1.46-.48,2.76,2.76,0,0,1,1.46-5,2.76,2.76,0,0,1,0,5.52Z"/><path d="M155.79,167h-1.28l-2.5-4.63h-3.12V167h-1.15v-11.2h5.46a2,2,0,0,1,2.24,2.24v2.09a1.94,1.94,0,0,1-2.15,2.24Zm-2.66-5.68c.84,0,1.16-.32,1.16-1.16V158c0-.83-.32-1.15-1.16-1.15h-4.24v4.47Z"/><path d="M174.24,155.79h7.09v1.05h-5.94v3.89h5v1.06h-5v4.14h5.94V167h-7.09Z"/><path d="M198.68,155.79h1.25l3.27,9.93,3.33-9.93h1.18L203.85,167h-1.31Z"/><path d="M225.72,155.79h7.09v1.05h-5.93v3.89h5v1.06h-5v4.14h5.93V167h-7.09Z"/><path d="M257.26,163.63h-4.7l-1.2,3.36h-1.19l4.11-11.2h1.32l4.11,11.2h-1.25Zm-.38-1.06-2-5.52-2,5.52Z"/><path d="M277.72,155.79h1.16v10.14h5.53V167h-6.69Z"/><path d="M303.61,163l-4-7.23h1.25l3.32,6.06,3.33-6.06h1.22l-4,7.23v4h-1.15Z"/><path d="M326,164.75V158a2,2,0,0,1,2.25-2.24h3.53A2,2,0,0,1,334,158v6.72a2,2,0,0,1-2.24,2.24h-3.53A2,2,0,0,1,326,164.75Zm5.72,1.18c.83,0,1.15-.32,1.15-1.15V158c0-.83-.32-1.15-1.15-1.15H328.3c-.83,0-1.15.32-1.15,1.15v6.79c0,.83.32,1.15,1.15,1.15Z"/><path d="M352.62,164.75v-9h1.15v9c0,.83.32,1.15,1.15,1.15h3.24c.83,0,1.15-.32,1.15-1.15v-9h1.15v9a2,2,0,0,1-2.24,2.24h-3.36A2,2,0,0,1,352.62,164.75Z"/><path d="M387.41,167h-1.28l-2.5-4.63h-3.12V167h-1.15v-11.2h5.45a2,2,0,0,1,2.24,2.24v2.09c0,1.49-.68,2.21-2.14,2.24Zm-2.66-5.68c.83,0,1.15-.32,1.15-1.16V158c0-.83-.32-1.15-1.15-1.15h-4.24v4.47Z"/><path d="M405.4,164.75v-1.14h1.16v1.23c0,.84.32,1.16,1.15,1.16h3.17c.83,0,1.15-.32,1.15-1.16V163.5c0-.85-.37-1.12-1.15-1.3l-3.14-.72c-1.25-.28-2.31-.61-2.31-2.29V158a2,2,0,0,1,2.25-2.24h3.1A2,2,0,0,1,413,158v1h-1.15v-1.12c0-.83-.32-1.15-1.15-1.15h-3c-.83,0-1.15.32-1.15,1.15v1.14c0,.84.37,1.12,1.15,1.29l3.14.72c1.25.29,2.3.61,2.3,2.29v1.38a2,2,0,0,1-2.24,2.24h-3.3A2,2,0,0,1,405.4,164.75Z"/><path d="M431.8,155.79h7.09v1.05H433v3.89h5v1.06h-5v4.14h5.93V167H431.8Z"/><path d="M457.31,155.79h1.15v10.14H464V167h-6.69Z"/><path d="M482.17,155.79h7.09v1.05h-5.94v4h5v1.06h-5V167h-1.15Z"/></svg>