<svg id="Calque_1" data-name="Calque 1" xmlns="http://www.w3.org/2000/svg" viewBox="0 0 445 237"><path d="M81.23,83.77V41c0-9.2,4.4-13.6,13.6-13.6h27.6c9.2,0,13.6,4.4,13.6,13.6v9.5h-18.6v-5.9c0-1.4-.4-1.8-1.8-1.8h-13.8c-1.4,0-1.8.4-1.8,1.8V80.17c0,1.4.4,1.79,1.8,1.79h13.8c1.4,0,1.8-.39,1.8-1.79v-8.8h-10.3V56.56H136V83.77c0,9.2-4.4,13.6-13.6,13.6H94.83C85.63,97.37,81.23,93,81.23,83.77Z"/><path d="M183.63,83H163l-3.7,14.41H140.12l21.11-70H186l21.3,70h-20Zm-3.8-15-6.5-25.3L166.83,68Z"/><path d="M299.42,27.36h49.21V43H318.22v10.9h24.11v15.4H318.22V81.77h30.41v15.6H299.42Z"/><path d="M314.52,177.37h-19L283.62,154h-7.7v23.41h-18.8v-70h41c9.2,0,13.6,4.4,13.6,13.6v18.2c0,7.7-3.1,12-9.5,13.3Zm-23.4-38.21c1.4,0,1.8-.4,1.8-1.8v-13c0-1.4-.4-1.8-1.8-1.8h-15.2v16.6Z"/><path d="M286,49.72c-2.45-10.27-6.9-13-11.8-12.52h-8.05c-.07-8.3-6.87-9.2-15.25-9.2s-15.17.9-15.24,9.2H225.21c-4,0-7.39,3.93-9.44,12.52-2.78,11.6-2,28.45,3.69,29.8,3.49.84,8-4.44,11.6-11.33l9.29,3.47C243.09,85,246.79,97,250.86,97s7.81-12.12,10.55-25.53L270.59,68c3.61,7,8.17,12.32,11.68,11.48C287.93,78.17,288.74,61.32,286,49.72Zm-14.15-4.38a2.76,2.76,0,1,1-2.76,2.76A2.76,2.76,0,0,1,271.81,45.34ZM255.52,63.08a4.43,4.43,0,1,1-4.42-4.42A4.42,4.42,0,0,1,255.52,63.08ZM238.35,55.6a1.09,1.09,0,0,1-1.09,1.1h-3.78v3.78a1.09,1.09,0,0,1-1.09,1.09h-3.63a1.09,1.09,0,0,1-1.09-1.09V56.7h-3.78a1.09,1.09,0,0,1-1.09-1.1V52a1.09,1.09,0,0,1,1.09-1.09h3.78V47.11a1.09,1.09,0,0,1,1.09-1.1h3.63a1.09,1.09,0,0,1,1.09,1.1v3.78h3.78A1.09,1.09,0,0,1,238.35,52V55.6ZM254.9,77.83a3.81,3.81,0,1,1-6.1-3,3.73,3.73,0,0,1,4.26-.23A3.8,3.8,0,0,1,254.9,77.83Zm11.21-21.28a2.76,2.76,0,1,1,2.76-2.76A2.76,2.76,0,0,1,266.11,56.55Zm2.94,2.94a2.76,2.76,0,1,1,2.76,2.76A2.76,2.76,0,0,1,269.05,59.49Zm8.45-2.94a2.72,2.72,0,0,1-1.46-5A2.65,2.65,0,0,1,277.5,51a2.76,2.76,0,0,1,0,5.52Z"/><path d="M204,126.29a12,12,0,1,0-13.5,13.46A12.06,12.06,0,0,0,204,126.29Z"/><path d="M187.68,173.36v-8.15h-7.49a4.41,4.41,0,0,1-4.39-4.84,4.54,4.54,0,0,1,4.58-4h7.3V148.2a20.84,20.84,0,0,1,.57-40.84H166.92v26.2h-20.1v-26.2H128v70h18.8V149.56h20.1v27.81h23A4.74,4.74,0,0,1,187.68,173.36Z"/><path d="M247.12,123v-15.6H195.85a20.82,20.82,0,0,1,.66,40.83v8.2h7.3a4.54,4.54,0,0,1,4.58,4,4.41,4.41,0,0,1-4.39,4.84h-7.5v8.38a4.42,4.42,0,0,1-2.13,3.78h52.75v-15.6h-30.4V149.26h24.1v-15.4h-24.1V123Z"/><path d="M107.2,198.63h-1.28l-2.5-4.62H100.3v4.62H99.15v-11.2h5.46a2,2,0,0,1,2.24,2.24v2.1A1.94,1.94,0,0,1,104.7,194ZM104.54,193c.84,0,1.16-.32,1.16-1.15v-2.16c0-.83-.32-1.15-1.16-1.15H100.3V193Z"/><path d="M117.64,187.43h7.09v1.06H118.8v3.89h5v1.05h-5v4.15h5.93v1h-7.09Z"/><path d="M134.09,187.43h1.25l3.27,9.94,3.32-9.94h1.19l-3.86,11.2H138Z"/><path d="M153.13,187.43h7.09v1.06h-5.94v3.89h5v1.05h-5v4.15h5.94v1h-7.09Z"/><path d="M176.67,195.27H172l-1.2,3.36h-1.18l4.11-11.2H175l4.12,11.2h-1.25Zm-.38-1.05-2-5.53-2,5.53Z"/><path d="M189.13,187.43h1.15v10.15h5.54v1h-6.69Z"/><path d="M207,194.67l-4-7.24h1.25l3.33,6.07,3.33-6.07h1.22l-4,7.24v4H207Z"/><path d="M221.4,196.39v-6.72a2,2,0,0,1,2.24-2.24h3.54a2,2,0,0,1,2.24,2.24v6.72a2,2,0,0,1-2.24,2.24h-3.54A2,2,0,0,1,221.4,196.39Zm5.72,1.19c.83,0,1.15-.32,1.15-1.15v-6.79c0-.83-.32-1.15-1.15-1.15h-3.41c-.83,0-1.15.32-1.15,1.15v6.79c0,.83.32,1.15,1.15,1.15Z"/><path d="M240,196.39v-9h1.15v9c0,.83.32,1.15,1.15,1.15h3.23c.84,0,1.16-.32,1.16-1.15v-9h1.15v9a2,2,0,0,1-2.24,2.24h-3.36A2,2,0,0,1,240,196.39Z"/><path d="M266.81,198.63h-1.28L263,194h-3.12v4.62h-1.16v-11.2h5.46a2,2,0,0,1,2.24,2.24v2.1a1.94,1.94,0,0,1-2.14,2.24ZM264.16,193c.83,0,1.15-.32,1.15-1.15v-2.16c0-.83-.32-1.15-1.15-1.15h-4.24V193Z"/><path d="M276.81,196.39v-1.13H278v1.23c0,.83.32,1.15,1.16,1.15h3.17c.83,0,1.15-.32,1.15-1.15v-1.34c0-.85-.37-1.12-1.15-1.3l-3.14-.72c-1.25-.29-2.31-.61-2.31-2.29v-1.17a2,2,0,0,1,2.24-2.24h3.11a2,2,0,0,1,2.24,2.24v1h-1.15v-1.12c0-.84-.32-1.16-1.16-1.16h-3c-.83,0-1.15.32-1.15,1.16v1.13c0,.85.36,1.12,1.15,1.3l3.14.72c1.24.29,2.3.61,2.3,2.29v1.37a2,2,0,0,1-2.24,2.24h-3.3A2,2,0,0,1,276.81,196.39Z"/><path d="M295.21,187.43h7.09v1.06h-5.94v3.89h5v1.05h-5v4.15h5.94v1h-7.09Z"/><path d="M312.71,187.43h1.16v10.15h5.54v1h-6.7Z"/><path d="M329.58,187.43h7.09v1.06h-5.94v4h5v1.06h-5v5.07h-1.15Z"/></svg>