<svg id="Calque_1" data-name="Calque 1" xmlns="http://www.w3.org/2000/svg" viewBox="0 0 445 237"><defs><style>.cls-1{fill:#b93c4e;}.cls-2{fill:#051623;}</style></defs><path class="cls-1" d="M315.42,180.37h-19L284.52,157h-7.7v23.41H258v-70h41c9.2,0,13.6,4.4,13.6,13.6v18.2c0,7.7-3.1,12-9.5,13.3ZM292,142.16c1.4,0,1.8-.4,1.8-1.8v-13c0-1.4-.4-1.8-1.8-1.8h-15.2v16.6Z"/><path class="cls-1" d="M188.58,176.36v-8.15h-7.49a4.41,4.41,0,0,1-4.39-4.84,4.54,4.54,0,0,1,4.58-4h7.3V151.2a20.84,20.84,0,0,1,.57-40.84H167.82v26.2h-20.1v-26.2h-18.8v70h18.8V152.56h20.1v27.81h23A4.74,4.74,0,0,1,188.58,176.36Z"/><path class="cls-1" d="M204.92,129.29a12,12,0,1,0-13.5,13.46A12.06,12.06,0,0,0,204.92,129.29Z"/><path class="cls-1" d="M248,126v-15.6H196.75a20.82,20.82,0,0,1,.66,40.83v8.2h7.3a4.54,4.54,0,0,1,4.58,4,4.41,4.41,0,0,1-4.39,4.84h-7.5v8.38a4.42,4.42,0,0,1-2.13,3.78H248v-15.6h-30.4V152.26h24.1v-15.4h-24.1V126Z"/><path class="cls-2" d="M88.47,86.77V44c0-9.2,4.4-13.6,13.6-13.6h27.6c9.21,0,13.61,4.4,13.61,13.6v9.5H124.67v-5.9c0-1.4-.4-1.8-1.8-1.8h-13.8c-1.4,0-1.8.4-1.8,1.8V83.17c0,1.4.4,1.79,1.8,1.79h13.8c1.4,0,1.8-.39,1.8-1.79v-8.8h-10.3V59.56h28.91V86.77c0,9.2-4.4,13.6-13.61,13.6h-27.6C92.87,100.37,88.47,96,88.47,86.77Z"/><path class="cls-2" d="M190.87,86h-20.6l-3.7,14.41h-19.2l21.1-70h24.8l21.31,70h-20Zm-3.8-15-6.5-25.3L174.07,71Z"/><path class="cls-2" d="M306.67,30.36h49.2V46h-30.4v10.9h24.1v15.4h-24.1V84.77h30.4v15.6h-49.2Z"/><path class="cls-2" d="M293.21,52.72c-2.45-10.27-6.9-13-11.81-12.52h-8c-.06-8.3-6.86-9.2-15.24-9.2s-15.17.9-15.24,9.2H232.46c-4,0-7.39,3.93-9.44,12.52-2.78,11.6-2,28.45,3.69,29.8,3.49.84,8-4.44,11.6-11.33l9.29,3.47C250.34,88,254,100,258.11,100s7.81-12.12,10.55-25.53L277.83,71c3.62,7,8.17,12.32,11.69,11.48C295.17,81.17,296,64.32,293.21,52.72Zm-14.16-4.38a2.76,2.76,0,1,1-2.76,2.76A2.76,2.76,0,0,1,279.05,48.34ZM262.77,66.08a4.43,4.43,0,1,1-4.43-4.42A4.42,4.42,0,0,1,262.77,66.08ZM245.6,58.6a1.09,1.09,0,0,1-1.09,1.1h-3.78v3.78a1.09,1.09,0,0,1-1.1,1.09H236a1.09,1.09,0,0,1-1.09-1.09V59.7h-3.78a1.1,1.1,0,0,1-1.1-1.1V55a1.09,1.09,0,0,1,1.1-1.09h3.78V50.11A1.09,1.09,0,0,1,236,49h3.62a1.1,1.1,0,0,1,1.1,1.1v3.78h3.78A1.09,1.09,0,0,1,245.6,55V58.6Zm16.55,22.23a3.81,3.81,0,0,1-7.62,0,3.81,3.81,0,0,1,7.62,0Zm11.21-21.28a2.76,2.76,0,1,1,2.76-2.76A2.75,2.75,0,0,1,273.36,59.55Zm2.93,2.94a2.77,2.77,0,1,1,2.76,2.76A2.77,2.77,0,0,1,276.29,62.49Zm8.46-2.94a2.72,2.72,0,0,1-1.46-5,2.65,2.65,0,0,1,1.46-.48,2.76,2.76,0,0,1,0,5.52Z"/><path class="cls-2" d="M107.93,202.63h-1.28l-2.5-4.62H101v4.62H99.88v-11.2h5.46a2,2,0,0,1,2.24,2.24v2.1a1.94,1.94,0,0,1-2.15,2.24ZM105.27,197c.83,0,1.15-.32,1.15-1.15v-2.16c0-.83-.32-1.15-1.15-1.15H101V197Z"/><path class="cls-2" d="M118.37,191.43h7.09v1.06h-5.93v3.89h5v1.05h-5v4.15h5.93v1h-7.09Z"/><path class="cls-2" d="M134.82,191.43h1.25l3.27,9.94,3.33-9.94h1.18L140,202.63h-1.31Z"/><path class="cls-2" d="M153.86,191.43H161v1.06H155v3.89h5v1.05h-5v4.15H161v1h-7.09Z"/><path class="cls-2" d="M177.4,199.27h-4.71l-1.2,3.36h-1.18l4.11-11.2h1.32l4.11,11.2H178.6Zm-.38-1.05-2-5.53-2,5.53Z"/><path class="cls-2" d="M189.86,191.43H191v10.15h5.54v1h-6.69Z"/><path class="cls-2" d="M207.75,198.67l-4-7.24H205l3.33,6.07,3.33-6.07h1.22l-4,7.24v4h-1.15Z"/><path class="cls-2" d="M222.13,200.39v-6.72a2,2,0,0,1,2.24-2.24h3.54a2,2,0,0,1,2.24,2.24v6.72a2,2,0,0,1-2.24,2.24h-3.54A2,2,0,0,1,222.13,200.39Zm5.72,1.19c.83,0,1.15-.32,1.15-1.15v-6.79c0-.83-.32-1.15-1.15-1.15h-3.41c-.83,0-1.15.32-1.15,1.15v6.79c0,.83.32,1.15,1.15,1.15Z"/><path class="cls-2" d="M240.76,200.39v-9h1.15v9c0,.83.32,1.15,1.15,1.15h3.23c.84,0,1.16-.32,1.16-1.15v-9h1.15v9a2,2,0,0,1-2.24,2.24H243A2,2,0,0,1,240.76,200.39Z"/><path class="cls-2" d="M267.54,202.63h-1.28L263.77,198h-3.12v4.62h-1.16v-11.2H265a2,2,0,0,1,2.24,2.24v2.1a1.94,1.94,0,0,1-2.14,2.24ZM264.89,197c.83,0,1.15-.32,1.15-1.15v-2.16c0-.83-.32-1.15-1.15-1.15h-4.24V197Z"/><path class="cls-2" d="M277.54,200.39v-1.13h1.15v1.23c0,.83.32,1.15,1.16,1.15H283c.83,0,1.15-.32,1.15-1.15v-1.34c0-.85-.37-1.12-1.15-1.3l-3.14-.72c-1.25-.29-2.31-.61-2.31-2.29v-1.17a2,2,0,0,1,2.24-2.24h3.11a2,2,0,0,1,2.24,2.24v1H284v-1.12c0-.84-.32-1.16-1.15-1.16h-3c-.83,0-1.15.32-1.15,1.16v1.13c0,.85.36,1.12,1.15,1.3l3.14.72c1.24.29,2.3.61,2.3,2.29v1.37a2,2,0,0,1-2.24,2.24h-3.3A2,2,0,0,1,277.54,200.39Z"/><path class="cls-2" d="M295.94,191.43H303v1.06h-5.94v3.89h5v1.05h-5v4.15H303v1h-7.09Z"/><path class="cls-2" d="M313.45,191.43h1.15v10.15h5.54v1h-6.69Z"/><path class="cls-2" d="M330.31,191.43h7.09v1.06h-5.94v4h5v1.06h-5v5.07h-1.15Z"/></svg>