<svg id="Calque_1" data-name="Calque 1" xmlns="http://www.w3.org/2000/svg" viewBox="0 0 636 240"><defs><style>.cls-1{fill:#051623;}.cls-2{fill:#b93c4e;}</style></defs><path class="cls-1" d="M163.83,170.63h-1.29L160.05,166h-3.12v4.62h-1.16v-11.2h5.46a2,2,0,0,1,2.24,2.24v2.1a1.94,1.94,0,0,1-2.14,2.24ZM161.17,165c.83,0,1.15-.32,1.15-1.15v-2.16c0-.83-.32-1.15-1.15-1.15h-4.24V165Z"/><path class="cls-1" d="M182.27,159.43h7.09v1.06h-5.94v3.89h5v1.05h-5v4.15h5.94v1h-7.09Z"/><path class="cls-1" d="M206.72,159.43H208l3.26,9.94,3.33-9.94h1.19l-3.86,11.2h-1.31Z"/><path class="cls-1" d="M233.76,159.43h7.09v1.06h-5.94v3.89h5v1.05h-5v4.15h5.94v1h-7.09Z"/><path class="cls-1" d="M265.3,167.27h-4.71l-1.2,3.36h-1.18l4.11-11.2h1.31l4.12,11.2H266.5Zm-.39-1.05-2-5.53-2,5.53Z"/><path class="cls-1" d="M285.76,159.43h1.15v10.15h5.54v1h-6.69Z"/><path class="cls-1" d="M311.65,166.67l-4-7.24h1.25l3.33,6.07,3.33-6.07h1.21l-4,7.24v4h-1.15Z"/><path class="cls-1" d="M334,168.39v-6.72a2,2,0,0,1,2.24-2.24h3.54a2,2,0,0,1,2.24,2.24v6.72a2,2,0,0,1-2.24,2.24h-3.54A2,2,0,0,1,334,168.39Zm5.71,1.19c.84,0,1.16-.32,1.16-1.15v-6.79c0-.83-.32-1.15-1.16-1.15h-3.41c-.83,0-1.15.32-1.15,1.15v6.79c0,.83.32,1.15,1.15,1.15Z"/><path class="cls-1" d="M360.65,168.39v-9h1.15v9c0,.83.32,1.15,1.16,1.15h3.23c.83,0,1.15-.32,1.15-1.15v-9h1.16v9a2,2,0,0,1-2.25,2.24h-3.36A2,2,0,0,1,360.65,168.39Z"/><path class="cls-1" d="M395.44,170.63h-1.28l-2.5-4.62h-3.12v4.62h-1.15v-11.2h5.46a2,2,0,0,1,2.24,2.24v2.1a1.94,1.94,0,0,1-2.15,2.24ZM392.78,165c.84,0,1.16-.32,1.16-1.15v-2.16c0-.83-.32-1.15-1.16-1.15h-4.24V165Z"/><path class="cls-1" d="M413.44,168.39v-1.13h1.15v1.23c0,.83.32,1.15,1.15,1.15h3.17c.83,0,1.15-.32,1.15-1.15v-1.34c0-.85-.36-1.12-1.15-1.3l-3.14-.72c-1.24-.29-2.3-.61-2.3-2.29v-1.17a2,2,0,0,1,2.24-2.24h3.11a2,2,0,0,1,2.24,2.24v1H419.9v-1.12c0-.84-.32-1.16-1.15-1.16h-3c-.83,0-1.15.32-1.15,1.16v1.13c0,.85.37,1.12,1.15,1.3l3.14.72c1.25.29,2.31.61,2.31,2.29v1.37a2,2,0,0,1-2.24,2.24h-3.3A2,2,0,0,1,413.44,168.39Z"/><path class="cls-1" d="M439.84,159.43h7.09v1.06H441v3.89h5v1.05h-5v4.15h5.94v1h-7.09Z"/><path class="cls-1" d="M465.34,159.43h1.15v10.15H472v1h-6.69Z"/><path class="cls-1" d="M490.2,159.43h7.1v1.06h-5.94v4h5v1.06h-5v5.07H490.2Z"/><path class="cls-1" d="M73.85,130.77V88c0-9.2,4.4-13.6,13.6-13.6h27.6c9.2,0,13.6,4.4,13.6,13.6v9.5h-18.6v-5.9c0-1.4-.4-1.8-1.8-1.8H94.45c-1.4,0-1.8.4-1.8,1.8v35.61c0,1.4.4,1.79,1.8,1.79h13.8c1.4,0,1.8-.39,1.8-1.79v-8.8H99.75V103.56h28.9v27.21c0,9.2-4.4,13.6-13.6,13.6H87.45C78.25,144.37,73.85,140,73.85,130.77Z"/><path class="cls-1" d="M176.25,130h-20.6L152,144.37h-19.2l21.1-70h24.8l21.3,70H180Zm-3.8-15L166,89.66l-6.5,25.3Z"/><path class="cls-1" d="M292.05,74.36h49.2V90h-30.4v10.9H335v15.4h-24.1v12.51h30.4v15.6h-49.2Z"/><path class="cls-2" d="M562.15,144.37h-19L531.25,121h-7.7v23.41h-18.8v-70h41c9.2,0,13.6,4.4,13.6,13.6v18.2c0,7.7-3.1,12-9.5,13.3Zm-23.4-38.21c1.4,0,1.8-.4,1.8-1.8v-13c0-1.4-.4-1.8-1.8-1.8h-15.2v16.6Z"/><path class="cls-2" d="M451.64,93.29a12,12,0,1,0-13.49,13.46A12.05,12.05,0,0,0,451.64,93.29Z"/><path class="cls-2" d="M494.75,90V74.36H443.48a20.82,20.82,0,0,1,.65,40.83v8.2h7.31a4.54,4.54,0,0,1,4.58,4,4.41,4.41,0,0,1-4.39,4.84h-7.5v8.38a4.42,4.42,0,0,1-2.13,3.78h52.75v-15.6h-30.4V116.26h24.1v-15.4h-24.1V90Z"/><path class="cls-2" d="M435.31,140.36v-8.15h-7.5a4.41,4.41,0,0,1-4.39-4.84,4.55,4.55,0,0,1,4.58-4h7.31V115.2a20.83,20.83,0,0,1,.57-40.84H414.55v26.2h-20.1V74.36h-18.8v70h18.8V116.56h20.1v27.81h23A4.72,4.72,0,0,1,435.31,140.36Z"/><path class="cls-1" d="M278.59,96.72c-2.46-10.27-6.9-13-11.81-12.52h-8c-.07-8.3-6.86-9.2-15.24-9.2s-15.17.9-15.24,9.2H217.84c-4,0-7.39,3.93-9.44,12.52-2.78,11.6-2,28.45,3.69,29.8,3.49.84,8-4.44,11.6-11.33l9.29,3.47C235.72,132,239.41,144,243.49,144s7.81-12.12,10.55-25.53l9.17-3.43c3.61,7,8.17,12.32,11.69,11.48C280.55,125.17,281.37,108.32,278.59,96.72Zm-14.16-4.38a2.76,2.76,0,1,1-2.76,2.76A2.75,2.75,0,0,1,264.43,92.34Zm-16.28,17.74a4.43,4.43,0,1,1-4.43-4.42A4.43,4.43,0,0,1,248.15,110.08ZM231,102.6a1.09,1.09,0,0,1-1.09,1.1h-3.78v3.78a1.09,1.09,0,0,1-1.1,1.09h-3.62a1.09,1.09,0,0,1-1.09-1.09V103.7h-3.79a1.09,1.09,0,0,1-1.09-1.1V99a1.09,1.09,0,0,1,1.09-1.09h3.79V94.11a1.09,1.09,0,0,1,1.09-1.1H225a1.1,1.1,0,0,1,1.1,1.1v3.78h3.78A1.09,1.09,0,0,1,231,99v3.62Zm16.55,22.23a3.81,3.81,0,0,1-7.62,0,3.81,3.81,0,0,1,7.62,0Zm11.21-21.28a2.76,2.76,0,1,1,2.76-2.76A2.75,2.75,0,0,1,258.74,103.55Zm2.93,2.94a2.76,2.76,0,1,1,2.76,2.76A2.77,2.77,0,0,1,261.67,106.49Zm8.46-2.94a2.72,2.72,0,0,1-1.46-5,2.65,2.65,0,0,1,1.46-.48,2.76,2.76,0,0,1,0,5.52Z"/></svg>