<svg id="Calque_1" data-name="Calque 1" xmlns="http://www.w3.org/2000/svg" viewBox="0 0 636 240"><defs><style>.cls-1{fill:#fff;}</style></defs><path class="cls-1" d="M73.85,126.12V83.32c0-9.2,4.4-13.6,13.6-13.6h27.6c9.2,0,13.6,4.4,13.6,13.6v9.5h-18.6v-5.9c0-1.4-.4-1.8-1.8-1.8H94.45c-1.4,0-1.8.4-1.8,1.8v35.6c0,1.4.4,1.8,1.8,1.8h13.8c1.4,0,1.8-.4,1.8-1.8v-8.8H99.75V98.92h28.9v27.2c0,9.2-4.4,13.6-13.6,13.6H87.45C78.25,139.72,73.85,135.32,73.85,126.12Z"/><path class="cls-1" d="M176.25,125.32h-20.6l-3.7,14.4h-19.2l21.1-70h24.8l21.3,70H180Zm-3.8-15L166,85l-6.5,25.3Z"/><path class="cls-1" d="M292.05,69.72h49.2v15.6h-30.4v10.9H335v15.4h-24.1v12.5h30.4v15.6h-49.2Z"/><path class="cls-1" d="M562.15,139.72h-19l-11.9-23.4h-7.7v23.4h-18.8v-70h41c9.2,0,13.6,4.4,13.6,13.6v18.2c0,7.7-3.1,12-9.5,13.3Zm-23.4-38.2c1.4,0,1.8-.4,1.8-1.8v-13c0-1.4-.4-1.8-1.8-1.8h-15.2v16.6Z"/><path class="cls-1" d="M451.64,88.65a12,12,0,1,0-13.49,13.46A12.05,12.05,0,0,0,451.64,88.65Z"/><path class="cls-1" d="M494.75,85.32V69.72H443.48a20.82,20.82,0,0,1,.65,40.83v8.19h7.31a4.55,4.55,0,0,1,4.58,4,4.42,4.42,0,0,1-4.39,4.85h-7.5v8.37a4.39,4.39,0,0,1-2.13,3.78h52.75v-15.6h-30.4v-12.5h24.1V96.22h-24.1V85.32Z"/><path class="cls-1" d="M435.31,135.72v-8.15h-7.5a4.42,4.42,0,0,1-4.39-4.85,4.54,4.54,0,0,1,4.58-4h7.31v-8.2a20.83,20.83,0,0,1,.57-40.83H414.55v26.2h-20.1V69.72h-18.8v70h18.8v-27.8h20.1v27.8h23A4.72,4.72,0,0,1,435.31,135.72Z"/><path class="cls-1" d="M278.59,92.07c-2.46-10.26-6.9-13-11.81-12.51h-8c-.07-8.31-6.86-9.21-15.24-9.21s-15.17.9-15.24,9.21H217.84c-4,0-7.39,3.93-9.44,12.51-2.78,11.6-2,28.45,3.69,29.81,3.49.83,8-4.45,11.6-11.33L233,114c2.74,13.34,6.43,25.34,10.51,25.34s7.81-12.11,10.55-25.53l9.17-3.42c3.61,7,8.17,12.32,11.69,11.48C280.55,120.52,281.37,103.67,278.59,92.07Zm-14.16-4.38a2.76,2.76,0,1,1-2.76,2.76A2.76,2.76,0,0,1,264.43,87.69Zm-16.28,17.74a4.43,4.43,0,1,1-4.43-4.42A4.43,4.43,0,0,1,248.15,105.43ZM231,98a1.09,1.09,0,0,1-1.09,1.09h-3.78v3.78a1.09,1.09,0,0,1-1.1,1.09h-3.62a1.09,1.09,0,0,1-1.09-1.09V99.05h-3.79A1.09,1.09,0,0,1,215.42,98V94.33a1.09,1.09,0,0,1,1.09-1.09h3.79V89.46a1.09,1.09,0,0,1,1.09-1.09H225a1.09,1.09,0,0,1,1.1,1.09v3.78h3.78A1.09,1.09,0,0,1,231,94.33V98Zm16.55,22.22a3.83,3.83,0,1,1-1.85-3.25A3.8,3.8,0,0,1,247.53,120.18Zm11.21-21.27a2.77,2.77,0,1,1,2.76-2.76A2.76,2.76,0,0,1,258.74,98.91Zm2.93,2.93a2.76,2.76,0,1,1,2.76,2.76A2.77,2.77,0,0,1,261.67,101.84Zm8.46-2.93a2.65,2.65,0,0,1-1.46-.48,2.76,2.76,0,0,1,1.46-5,2.76,2.76,0,0,1,0,5.52Z"/><path class="cls-1" d="M163.83,166h-1.29l-2.49-4.63h-3.12V166h-1.16v-11.2h5.46a2,2,0,0,1,2.24,2.24v2.09a1.94,1.94,0,0,1-2.14,2.24Zm-2.66-5.68c.83,0,1.15-.32,1.15-1.16V157c0-.83-.32-1.15-1.15-1.15h-4.24v4.47Z"/><path class="cls-1" d="M182.27,154.79h7.09v1.05h-5.94v3.89h5v1.06h-5v4.14h5.94V166h-7.09Z"/><path class="cls-1" d="M206.72,154.79H208l3.26,9.93,3.33-9.93h1.19L211.89,166h-1.31Z"/><path class="cls-1" d="M233.76,154.79h7.09v1.05h-5.94v3.89h5v1.06h-5v4.14h5.94V166h-7.09Z"/><path class="cls-1" d="M265.3,162.63h-4.71l-1.2,3.36h-1.18l4.11-11.2h1.31l4.12,11.2H266.5Zm-.39-1.06-2-5.52-2,5.52Z"/><path class="cls-1" d="M285.76,154.79h1.15v10.14h5.54V166h-6.69Z"/><path class="cls-1" d="M311.65,162l-4-7.23h1.25l3.33,6.06,3.33-6.06h1.21l-4,7.23v4h-1.15Z"/><path class="cls-1" d="M334,163.75V157a2,2,0,0,1,2.24-2.24h3.54a2,2,0,0,1,2.24,2.24v6.72a2,2,0,0,1-2.24,2.24h-3.54A2,2,0,0,1,334,163.75Zm5.71,1.18c.84,0,1.16-.32,1.16-1.15V157c0-.83-.32-1.15-1.16-1.15h-3.41c-.83,0-1.15.32-1.15,1.15v6.79c0,.83.32,1.15,1.15,1.15Z"/><path class="cls-1" d="M360.65,163.75v-9h1.15v9c0,.83.32,1.15,1.16,1.15h3.23c.83,0,1.15-.32,1.15-1.15v-9h1.16v9a2,2,0,0,1-2.25,2.24h-3.36A2,2,0,0,1,360.65,163.75Z"/><path class="cls-1" d="M395.44,166h-1.28l-2.5-4.63h-3.12V166h-1.15v-11.2h5.46a2,2,0,0,1,2.24,2.24v2.09a1.94,1.94,0,0,1-2.15,2.24Zm-2.66-5.68c.84,0,1.16-.32,1.16-1.16V157c0-.83-.32-1.15-1.16-1.15h-4.24v4.47Z"/><path class="cls-1" d="M413.44,163.75v-1.14h1.15v1.23c0,.84.32,1.16,1.15,1.16h3.17c.83,0,1.15-.32,1.15-1.16V162.5c0-.85-.36-1.12-1.15-1.3l-3.14-.72c-1.24-.28-2.3-.61-2.3-2.29V157a2,2,0,0,1,2.24-2.24h3.11a2,2,0,0,1,2.24,2.24v1H419.9v-1.12c0-.83-.32-1.15-1.15-1.15h-3c-.83,0-1.15.32-1.15,1.15v1.14c0,.84.37,1.12,1.15,1.29l3.14.72c1.25.29,2.31.61,2.31,2.29v1.38A2,2,0,0,1,419,166h-3.3A2,2,0,0,1,413.44,163.75Z"/><path class="cls-1" d="M439.84,154.79h7.09v1.05H441v3.89h5v1.06h-5v4.14h5.94V166h-7.09Z"/><path class="cls-1" d="M465.34,154.79h1.15v10.14H472V166h-6.69Z"/><path class="cls-1" d="M490.2,154.79h7.1v1.05h-5.94v4h5v1.06h-5V166H490.2Z"/></svg>