<svg id="Calque_1" data-name="Calque 1" xmlns="http://www.w3.org/2000/svg" viewBox="0 0 445 237"><defs><style>.cls-1{fill:#fff;}</style></defs><path class="cls-1" d="M316.25,181.37h-19L285.35,158h-7.7v23.41h-18.8v-70h41c9.2,0,13.6,4.4,13.6,13.6v18.2c0,7.7-3.1,12-9.5,13.3Zm-23.4-38.21c1.4,0,1.8-.4,1.8-1.8v-13c0-1.4-.4-1.8-1.8-1.8h-15.2v16.6Z"/><path class="cls-1" d="M189.41,177.36v-8.15h-7.5a4.41,4.41,0,0,1-4.38-4.84,4.53,4.53,0,0,1,4.57-4h7.31V152.2a20.84,20.84,0,0,1,.57-40.84H168.65v26.2h-20.1v-26.2h-18.8v70h18.8V153.56h20.1v27.81h23A4.72,4.72,0,0,1,189.41,177.36Z"/><path class="cls-1" d="M205.74,130.29a12,12,0,1,0-13.49,13.46A12.05,12.05,0,0,0,205.74,130.29Z"/><path class="cls-1" d="M248.85,127v-15.6H197.58a20.82,20.82,0,0,1,.65,40.83v8.2h7.31a4.54,4.54,0,0,1,4.58,4,4.41,4.41,0,0,1-4.39,4.84h-7.5v8.38a4.42,4.42,0,0,1-2.13,3.78h52.75v-15.6h-30.4V153.26h24.1v-15.4h-24.1V127Z"/><path class="cls-1" d="M89.3,87.77V45c0-9.2,4.4-13.6,13.6-13.6h27.6c9.2,0,13.6,4.4,13.6,13.6v9.5H125.5v-5.9c0-1.4-.4-1.8-1.8-1.8H109.9c-1.4,0-1.8.4-1.8,1.8V84.17c0,1.4.4,1.79,1.8,1.79h13.8c1.4,0,1.8-.39,1.8-1.79v-8.8H115.2V60.56h28.9V87.77c0,9.2-4.4,13.6-13.6,13.6H102.9C93.7,101.37,89.3,97,89.3,87.77Z"/><path class="cls-1" d="M191.7,87H171.1l-3.7,14.41H148.2l21.1-70h24.8l21.3,70h-20Zm-3.8-15-6.5-25.3L174.9,72Z"/><path class="cls-1" d="M307.5,31.36h49.2V47H326.3v10.9h24.1v15.4H326.3V85.77h30.4v15.6H307.5Z"/><path class="cls-1" d="M294,53.72c-2.46-10.27-6.9-13-11.81-12.52h-8.05c-.07-8.3-6.87-9.2-15.24-9.2s-15.18.9-15.24,9.2H233.29c-4,0-7.4,3.93-9.45,12.52-2.77,11.6-2,28.45,3.69,29.8,3.49.84,8-4.44,11.61-11.33l9.29,3.47C251.17,89,254.86,101,258.94,101s7.81-12.12,10.55-25.53L278.66,72c3.61,7,8.17,12.32,11.69,11.48C296,82.17,296.81,65.32,294,53.72Zm-14.16-4.38a2.76,2.76,0,1,1-2.76,2.76A2.75,2.75,0,0,1,279.88,49.34ZM263.59,67.08a4.42,4.42,0,1,1-4.42-4.42A4.42,4.42,0,0,1,263.59,67.08ZM246.43,59.6a1.1,1.1,0,0,1-1.1,1.1h-3.78v3.78a1.09,1.09,0,0,1-1.09,1.09h-3.62a1.09,1.09,0,0,1-1.1-1.09V60.7H232a1.09,1.09,0,0,1-1.09-1.1V56A1.09,1.09,0,0,1,232,54.89h3.78V51.11a1.1,1.1,0,0,1,1.1-1.1h3.62a1.09,1.09,0,0,1,1.09,1.1v3.78h3.79A1.09,1.09,0,0,1,246.43,56V59.6ZM263,81.83a3.81,3.81,0,0,1-7.62,0,3.81,3.81,0,0,1,7.62,0Zm11.21-21.28A2.76,2.76,0,1,1,277,57.79,2.75,2.75,0,0,1,274.19,60.55Zm2.93,2.94a2.76,2.76,0,1,1,2.76,2.76A2.77,2.77,0,0,1,277.12,63.49Zm8.46-2.94a2.72,2.72,0,0,1-1.46-5,2.65,2.65,0,0,1,1.46-.48,2.76,2.76,0,0,1,0,5.52Z"/><path class="cls-1" d="M108.76,203.63h-1.28L105,199h-3.12v4.62h-1.15v-11.2h5.45a2,2,0,0,1,2.25,2.24v2.1a1.94,1.94,0,0,1-2.15,2.24ZM106.1,198c.83,0,1.15-.32,1.15-1.15v-2.16c0-.83-.32-1.15-1.15-1.15h-4.24V198Z"/><path class="cls-1" d="M119.2,192.43h7.09v1.06h-5.94v3.89h5v1.05h-5v4.15h5.94v1H119.2Z"/><path class="cls-1" d="M135.65,192.43h1.25l3.26,9.94,3.33-9.94h1.19l-3.86,11.2h-1.31Z"/><path class="cls-1" d="M154.69,192.43h7.09v1.06h-5.94v3.89h5v1.05h-5v4.15h5.94v1h-7.09Z"/><path class="cls-1" d="M178.23,200.27h-4.71l-1.2,3.36h-1.18l4.11-11.2h1.31l4.12,11.2h-1.25Zm-.39-1.05-2-5.53-2,5.53Z"/><path class="cls-1" d="M190.69,192.43h1.15v10.15h5.54v1h-6.69Z"/><path class="cls-1" d="M208.58,199.67l-4-7.24h1.25l3.33,6.07,3.33-6.07h1.22l-4,7.24v4h-1.15Z"/><path class="cls-1" d="M223,201.39v-6.72a2,2,0,0,1,2.24-2.24h3.54a2,2,0,0,1,2.24,2.24v6.72a2,2,0,0,1-2.24,2.24H225.2A2,2,0,0,1,223,201.39Zm5.71,1.19c.84,0,1.16-.32,1.16-1.15v-6.79c0-.83-.32-1.15-1.16-1.15h-3.4c-.84,0-1.16.32-1.16,1.15v6.79c0,.83.32,1.15,1.16,1.15Z"/><path class="cls-1" d="M241.58,201.39v-9h1.16v9c0,.83.32,1.15,1.15,1.15h3.23c.84,0,1.15-.32,1.15-1.15v-9h1.16v9a2,2,0,0,1-2.24,2.24h-3.36A2,2,0,0,1,241.58,201.39Z"/><path class="cls-1" d="M268.37,203.63h-1.28l-2.5-4.62h-3.12v4.62h-1.15v-11.2h5.46a2,2,0,0,1,2.24,2.24v2.1a1.94,1.94,0,0,1-2.14,2.24ZM265.71,198c.84,0,1.16-.32,1.16-1.15v-2.16c0-.83-.32-1.15-1.16-1.15h-4.24V198Z"/><path class="cls-1" d="M278.37,201.39v-1.13h1.15v1.23c0,.83.32,1.15,1.15,1.15h3.17c.83,0,1.16-.32,1.16-1.15v-1.34c0-.85-.37-1.12-1.16-1.3l-3.13-.72c-1.25-.29-2.31-.61-2.31-2.29v-1.17a2,2,0,0,1,2.24-2.24h3.11a2,2,0,0,1,2.24,2.24v1h-1.16v-1.12c0-.84-.31-1.16-1.15-1.16h-3c-.84,0-1.16.32-1.16,1.16v1.13c0,.85.37,1.12,1.16,1.3l3.13.72c1.25.29,2.31.61,2.31,2.29v1.37a2,2,0,0,1-2.24,2.24h-3.3A2,2,0,0,1,278.37,201.39Z"/><path class="cls-1" d="M296.77,192.43h7.09v1.06h-5.94v3.89h5v1.05h-5v4.15h5.94v1h-7.09Z"/><path class="cls-1" d="M314.27,192.43h1.15v10.15H321v1h-6.69Z"/><path class="cls-1" d="M331.14,192.43h7.09v1.06h-5.94v4h5v1.06h-5v5.07h-1.15Z"/></svg>